<svg width="156" height="101" viewBox="0 0 156 101" fill="none" xmlns="http://www.w3.org/2000/svg">
<path d="M10.4581 98.3342C9.61704 98.842 8.64899 99.0959 7.58572 99.0959C5.99875 99.0959 4.64982 98.5405 3.55481 97.4455C2.4598 96.3346 1.92023 94.9857 1.92023 93.3987C1.92023 91.8117 2.4598 90.4628 3.55481 89.3519C4.64982 88.2411 5.99875 87.7015 7.58572 87.7015C8.66486 87.7015 9.63291 87.9554 10.474 88.4632C11.331 88.9711 11.9499 89.6535 12.3308 90.5263L13.886 89.6376C13.3623 88.4791 12.5371 87.5745 11.4103 86.8921C10.2836 86.2097 8.99812 85.8765 7.58572 85.8765C5.41157 85.8765 3.60242 86.6065 2.17415 88.0506C0.714136 89.4789 0 91.2563 0 93.3987C0 95.5252 0.714136 97.3185 2.15828 98.7785C3.60242 100.223 5.41157 100.953 7.56985 100.953C8.96638 100.953 10.2518 100.619 11.3944 99.9529C12.5529 99.2864 13.4258 98.3659 14.0129 97.2233L12.426 96.3029C11.9658 97.1439 11.2992 97.8263 10.4581 98.3342Z" fill="#333232"/>
<path d="M22.4724 85.8447C20.3618 85.8447 18.5685 86.5747 17.0926 88.0189C15.6167 89.463 14.8867 91.2563 14.8867 93.3828C14.8867 95.5094 15.6167 97.3026 17.0926 98.7627C18.5685 100.207 20.3459 100.937 22.4724 100.937C24.5831 100.937 26.3764 100.207 27.8523 98.7627C29.3281 97.3185 30.0582 95.5252 30.0582 93.3828C30.0582 91.2563 29.3281 89.463 27.8523 88.0189C26.3764 86.5747 24.5831 85.8447 22.4724 85.8447ZM26.5033 97.4455C25.4083 98.5564 24.0594 99.0959 22.4724 99.0959C20.8855 99.0959 19.5365 98.5405 18.4415 97.4455C17.3465 96.3346 16.807 94.9857 16.807 93.3987C16.807 91.8117 17.3465 90.4628 18.4415 89.3519C19.5365 88.2411 20.8855 87.7015 22.4724 87.7015C24.0594 87.7015 25.4083 88.2569 26.5033 89.3519C27.5983 90.4628 28.1379 91.8117 28.1379 93.3987C28.1379 94.9857 27.5983 96.3346 26.5033 97.4455Z" fill="#333232"/>
<path d="M39.0884 85.8447C36.9301 85.8447 35.3273 86.7017 34.2481 88.4315V86.1939H32.3438V100.604H34.2481V93.0496C34.2481 91.2246 34.6766 89.8756 35.5494 89.0028C36.4064 88.13 37.5331 87.6856 38.9138 87.6856C40.1675 87.6856 41.1197 88.0347 41.8021 88.7489C42.4845 89.463 42.8177 90.4628 42.8177 91.7483V100.588H44.7221V91.7483C44.7221 89.9391 44.2143 88.5108 43.2145 87.4476C42.2147 86.3843 40.834 85.8447 39.0884 85.8447Z" fill="#333232"/>
<path d="M50.7031 82.1626L48.7987 82.7339V86.1935H45.7676V88.0344H48.7987V96.7627C48.7987 98.429 49.3065 99.5717 50.3063 100.159C51.322 100.746 52.8296 100.905 54.845 100.587V98.921C53.9246 98.9527 53.147 98.9686 52.5439 98.9686C51.925 98.9527 51.4648 98.7782 51.1633 98.4449C50.8618 98.1116 50.7031 97.5403 50.7031 96.7627V88.0344H54.845V86.1935H50.7031V82.1626Z" fill="#333232"/>
<path d="M68.6535 89.0187C67.3364 86.908 65.3844 85.8447 62.8294 85.8447C60.7663 85.8447 59.0206 86.5747 57.5765 88.0347C56.1323 89.4948 55.4023 91.288 55.4023 93.3987C55.4023 95.5094 56.1323 97.3026 57.5765 98.7627C59.0206 100.223 60.7822 100.953 62.8294 100.953C65.3844 100.953 67.3205 99.9053 68.6535 97.7787V100.604H70.5579V86.1939H68.6535V89.0187ZM67.0031 97.4455C65.9081 98.5564 64.5592 99.0959 62.9722 99.0959C61.3852 99.0959 60.0363 98.5405 58.9413 97.4455C57.8463 96.3346 57.3067 94.9857 57.3067 93.3987C57.3067 91.8117 57.8463 90.4628 58.9413 89.3519C60.0363 88.2411 61.3852 87.7015 62.9722 87.7015C64.5592 87.7015 65.9081 88.2569 67.0031 89.3519C68.0981 90.4628 68.6377 91.8117 68.6377 93.3987C68.6377 94.9857 68.0981 96.3346 67.0031 97.4455Z" fill="#333232"/>
<path d="M76.4938 81.4171C75.367 82.4804 74.7957 84.0197 74.7957 86.0511V86.1939H72.7168V89.7646H74.7957V100.588H78.5092V89.7646H81.5562V86.1939H78.5092V86.0511C78.5092 84.2578 79.5249 83.4484 81.5562 83.6071V80.0206C79.3186 79.8936 77.6205 80.3538 76.4938 81.4171Z" fill="#333232"/>
<path d="M92.1871 93.9705C92.1871 95.1607 91.9015 96.0494 91.3302 96.6525C90.7588 97.2396 89.9812 97.5412 89.029 97.5412C88.1721 97.5412 87.4738 97.2873 86.9501 96.7794C86.4264 96.2716 86.1725 95.5416 86.1725 94.5735V86.1943H82.459V95.0338C82.459 96.8905 82.9668 98.3505 83.9983 99.4138C85.0299 100.477 86.3312 101.001 87.9023 101.001C89.8543 101.001 91.2984 100.334 92.1871 98.9853V100.604H95.9006V86.1943H92.1871V93.9705Z" fill="#333232"/>
<path d="M120.705 93.9705C120.705 95.1607 120.419 96.0494 119.848 96.6525C119.276 97.2396 118.499 97.5412 117.547 97.5412C116.69 97.5412 115.991 97.2873 115.468 96.7794C114.944 96.2716 114.69 95.5416 114.69 94.5735V86.1943H110.977V95.0338C110.977 96.8905 111.484 98.3505 112.516 99.4138C113.547 100.477 114.849 101.001 116.42 101.001C118.372 101.001 119.816 100.334 120.705 98.9853V100.604H124.418V86.1943H120.705V93.9705Z" fill="#333232"/>
<path d="M130.766 88.669V86.1934H127.053V100.603H130.766V93.7156C130.766 92.3349 131.211 91.351 132.099 90.748C132.988 90.1449 134.004 89.9227 135.146 90.0497V85.9077C134.162 85.9077 133.274 86.1458 132.48 86.606C131.687 87.0503 131.115 87.7486 130.766 88.669Z" fill="#333232"/>
<path d="M143.272 85.7812C141.145 85.7812 139.336 86.5113 137.876 87.9871C136.416 89.463 135.67 91.2563 135.67 93.3828C135.67 95.5094 136.4 97.3185 137.876 98.7785C139.352 100.239 141.145 100.984 143.272 100.984C145.398 100.984 147.207 100.254 148.683 98.7785C150.159 97.3027 150.905 95.5094 150.905 93.3828C150.905 91.2563 150.159 89.4472 148.683 87.9871C147.207 86.5271 145.414 85.7812 143.272 85.7812ZM146.065 96.2394C145.319 96.9853 144.382 97.3661 143.272 97.3661C142.161 97.3661 141.224 96.9853 140.494 96.2394C139.748 95.4935 139.383 94.5413 139.383 93.3828C139.383 92.2243 139.748 91.288 140.494 90.5263C141.24 89.7804 142.161 89.3995 143.272 89.3995C144.382 89.3995 145.319 89.7804 146.065 90.5263C146.81 91.2722 147.191 92.2243 147.191 93.3828C147.191 94.5413 146.826 95.4935 146.065 96.2394Z" fill="#333232"/>
<path d="M154.588 87.2886C154.588 86.8442 154.286 86.6855 153.905 86.6855H153.08V88.6851H153.445V87.8758H153.636L154.223 88.6851H154.683L154.064 87.8599C154.366 87.8282 154.588 87.606 154.588 87.2886ZM153.429 87.5584V87.0029H153.889C154.096 87.0029 154.223 87.0664 154.223 87.2727C154.223 87.4473 154.096 87.5425 153.889 87.5425H153.429V87.5584Z" fill="#333232"/>
<path d="M153.795 85.7656C152.7 85.7656 151.891 86.6226 151.891 87.7017C151.891 88.7491 152.7 89.6378 153.795 89.6378C154.89 89.6378 155.699 88.765 155.699 87.7017C155.699 86.6226 154.906 85.7656 153.795 85.7656ZM153.795 89.3522C152.875 89.3522 152.176 88.6063 152.176 87.6859C152.176 86.7654 152.859 86.0195 153.795 86.0195C154.715 86.0195 155.414 86.7654 155.414 87.6859C155.414 88.6063 154.715 89.3522 153.795 89.3522Z" fill="#333232"/>
<path d="M105.28 80.8296H105.2H101.566H101.503H101.487C101.487 83.5909 99.4239 85.8603 96.7578 86.2094V89.9388C98.5193 89.796 100.154 89.1612 101.487 88.1614V95.6678C101.487 97.6673 102.027 99.0639 103.09 99.8574C104.153 100.635 105.978 100.889 108.581 100.587V97.1595C107.851 97.2071 107.248 97.2071 106.772 97.1754C106.28 97.1436 105.915 97.0167 105.661 96.7786C105.407 96.5406 105.28 96.1756 105.28 95.6678V88.1773C106.645 89.1929 108.311 89.8277 110.104 89.9547V86.2253C107.406 85.9238 105.28 83.6227 105.28 80.8296Z" fill="#333232"/>
</svg>
